<!-- Generator: Adobe Illustrator 27.0.1, SVG Export Plug-In . SVG Version: 6.00 Build 0)  -->
<svg xmlns="http://www.w3.org/2000/svg" xmlns:xlink="http://www.w3.org/1999/xlink" version="1.1" id="cmlogo" x="0px" y="0px" viewBox="0 0 1440 200" style="enable-background:new 0 0 1440 200;" xml:space="preserve">
<style type="text/css">
	.st2{fill:#7856FF;}
</style>
<g>
	<g>
		<path class="st0" d="M1105.1,146.4h4.3l14.8,21.6l14.8-21.6h4.4v37h-6.8v-21.9l-11.2,16.2h-2.2l-11.2-16.2v21.9h-6.8L1105.1,146.4    L1105.1,146.4z"></path>
		<path class="st0" d="M1178.1,175H1165l-3.1,8.4h-7.3l14.3-37h5.3l14.2,37h-7.3L1178.1,175L1178.1,175z M1167,168.8h9.2l-4.6-12.7    L1167,168.8z"></path>
		<path class="st0" d="M1246.6,146.4v37h-6.9v-37H1246.6z"></path>
		<path class="st0" d="M1258.5,164.9c0-11.3,8.7-19.2,19.5-19.2c6.2,0,11.8,2.7,15,6.2l-4.6,4.8c-2.7-2.7-6.4-4.4-10.5-4.4    c-7.2,0-12.5,5.3-12.5,12.5s5.2,12.5,12.4,12.5c4.1,0,8-1.8,10.4-4.3v-5.6h-10.7v-6h17v15c-4.6,4.8-10.4,7.5-16.9,7.5    C1266.6,184,1258.5,175.9,1258.5,164.9L1258.5,164.9z"></path>
		<path class="st0" d="M1305.7,165c0-10.8,8.5-19.3,19.2-19.3s19.2,8.6,19.2,19.2c0,10.6-8.4,19.1-19.3,19.1    S1305.7,175.7,1305.7,165z M1337,164.9c0-7.2-5.5-12.4-12.1-12.4c-6.8,0-12.1,5.3-12.1,12.4s5.3,12.4,12.1,12.4    C1331.7,177.3,1337.1,172,1337,164.9z"></path>
		<path class="st0" d="M1355,146.4h6.9v30.5h19v6.6H1355V146.4L1355,146.4z"></path>
		<path class="st0" d="M1388.5,146.4h14.3c11,0,17.6,7.2,17.6,18.6c0,11.3-6.7,18.4-17.9,18.4h-14V146.4L1388.5,146.4z     M1402.7,176.9c7,0,10.6-5.4,10.6-12c0-6.5-3.6-11.9-10.5-11.9h-7.5v23.9L1402.7,176.9L1402.7,176.9z"></path>
		<path class="st0" d="M1220.3,173.3c-1.1-1.8-1.7-2.9-2.6-4.5c0.3-0.1,0.4-0.1,0.4-0.1c5.4-1.8,7.8-6.3,7.8-10.8    c0-6-4-11.6-12.4-11.6h-13.8v37h6.8v-13.9c0,0,2.3,0,3.7,0c1.5,2.6,2.7,4.6,4.3,7.5c2.9,4.9,6.2,6.6,12.2,6.6v-6.7    C1224.5,176.9,1221.9,176.2,1220.3,173.3L1220.3,173.3z M1206.5,152.8h7c3.6,0,5.4,2.4,5.4,5.3s-1.7,5.4-6.2,5.4h-6.2V152.8z"></path>
	</g>
	<g>
		<g>
			<path class="st0" d="M1034.4,147.1h4.2v16.4h0.1c0.8-1.2,1.8-2.1,3.2-2.8c1.4-0.7,2.9-1,4.5-1c1.7,0,3.3,0.3,4.7,0.9     c1.4,0.6,2.6,1.4,3.6,2.5s1.8,2.3,2.3,3.7c0.5,1.4,0.8,3,0.8,4.6s-0.3,3.2-0.8,4.6c-0.5,1.4-1.3,2.6-2.3,3.7     c-1,1.1-2.2,1.9-3.6,2.5c-1.4,0.6-2.9,0.9-4.7,0.9c-1.5,0-3-0.3-4.4-1c-1.4-0.7-2.6-1.6-3.4-2.8h-0.1v3.2h-4.2V147.1     L1034.4,147.1z M1046,179.2c1.1,0,2.2-0.2,3.1-0.6c0.9-0.4,1.7-0.9,2.3-1.6c0.6-0.7,1.1-1.5,1.5-2.4c0.3-1,0.5-2,0.5-3.1     s-0.2-2.2-0.5-3.1c-0.3-1-0.8-1.8-1.5-2.4s-1.4-1.2-2.3-1.6s-1.9-0.6-3.1-0.6s-2.2,0.2-3.1,0.6c-0.9,0.4-1.7,0.9-2.3,1.6     c-0.6,0.7-1.1,1.5-1.5,2.4c-0.3,1-0.5,2-0.5,3.1s0.2,2.2,0.5,3.1c0.3,1,0.8,1.8,1.5,2.4s1.4,1.2,2.3,1.6S1044.9,179.2,1046,179.2     z"></path>
			<path class="st0" d="M1046.5,183.8c-1.6,0-3.1-0.4-4.6-1c-1-0.5-1.9-1.1-2.6-1.8v2.3h-5.4v-36.7h5.4V162c0.7-0.7,1.5-1.3,2.5-1.8     c1.5-0.7,3.1-1.1,4.8-1.1c1.8,0,3.4,0.3,4.9,0.9c1.5,0.6,2.7,1.5,3.8,2.6c1,1.1,1.8,2.4,2.4,3.9c0.6,1.5,0.8,3.1,0.8,4.8     s-0.3,3.3-0.8,4.8c-0.6,1.5-1.4,2.8-2.4,3.9c-1,1.1-2.3,2-3.8,2.6C1050,183.4,1048.3,183.8,1046.5,183.8L1046.5,183.8z      M1038.1,178.9h1l0.2,0.2c0.8,1.1,1.8,2,3.1,2.6c1.3,0.6,2.7,0.9,4.2,0.9c1.6,0,3.1-0.3,4.4-0.9c1.3-0.6,2.4-1.4,3.4-2.4     c0.9-1,1.7-2.2,2.2-3.5c0.5-1.3,0.8-2.8,0.8-4.4s-0.3-3.1-0.8-4.4c-0.5-1.4-1.2-2.5-2.2-3.5s-2.1-1.8-3.4-2.3s-2.8-0.9-4.4-0.9     c-1.5,0-2.9,0.3-4.3,0.9c-1.3,0.6-2.3,1.5-3,2.5l-0.2,0.3h-1v-16.4h-3.1V182h3.1L1038.1,178.9L1038.1,178.9z M1046,179.8     c-1.2,0-2.3-0.2-3.3-0.6c-1-0.4-1.8-1-2.5-1.7c-0.7-0.7-1.2-1.6-1.6-2.6c-0.4-1-0.6-2.1-0.6-3.3s0.2-2.3,0.6-3.3     c0.4-1,0.9-1.9,1.6-2.6c0.7-0.7,1.5-1.3,2.5-1.7c1-0.4,2.1-0.6,3.3-0.6s2.3,0.2,3.3,0.6c1,0.4,1.8,1,2.5,1.7     c0.7,0.7,1.2,1.6,1.6,2.6s0.6,2.1,0.6,3.3s-0.2,2.3-0.6,3.3c-0.4,1-0.9,1.9-1.6,2.6c-0.7,0.7-1.5,1.3-2.5,1.7     C1048.3,179.6,1047.2,179.8,1046,179.8L1046,179.8z M1046,164.3c-1,0-2,0.2-2.8,0.5s-1.5,0.9-2.1,1.5s-1,1.4-1.3,2.2     c-0.3,0.9-0.5,1.9-0.5,2.9s0.2,2,0.5,2.9c0.3,0.9,0.8,1.6,1.3,2.2s1.3,1.1,2.1,1.5s1.8,0.5,2.8,0.5s2-0.2,2.8-0.5     s1.5-0.9,2.1-1.5s1-1.4,1.3-2.2c0.3-0.9,0.5-1.9,0.5-2.9s-0.2-2-0.5-2.9c-0.3-0.9-0.8-1.6-1.3-2.2s-1.3-1.1-2.1-1.5     S1047,164.3,1046,164.3z"></path>
		</g>
		<g>
			<path class="st0" d="M1060.5,160.4h4.9l6.6,17.4h0.1l6.3-17.4h4.5l-10.6,27.1c-0.4,1-0.8,1.9-1.2,2.6c-0.4,0.8-0.9,1.5-1.4,2     c-0.6,0.6-1.2,1-2,1.3c-0.8,0.3-1.8,0.5-2.9,0.5c-0.6,0-1.3,0-1.9-0.1s-1.3-0.2-1.8-0.5l0.5-3.9c0.8,0.3,1.7,0.5,2.5,0.5     c0.7,0,1.2-0.1,1.7-0.3c0.4-0.2,0.8-0.4,1.2-0.8c0.3-0.3,0.6-0.7,0.8-1.1c0.2-0.4,0.4-0.9,0.7-1.5l1.4-3.5L1060.5,160.4     L1060.5,160.4z"></path>
			<path class="st0" d="M1064.8,194.5c-0.6,0-1.3,0-2-0.1c-0.7-0.1-1.4-0.3-2-0.5l-0.4-0.2l0.7-5l0.7,0.3c0.8,0.3,1.5,0.5,2.3,0.5     c0.6,0,1.1-0.1,1.4-0.2c0.4-0.1,0.7-0.4,1-0.6c0.3-0.3,0.5-0.6,0.7-1c0.2-0.4,0.4-0.9,0.6-1.4l1.3-3.3l-9.5-23h6.2l6.2,16.4     l6-16.4h5.8l-10.9,27.9c-0.4,1-0.8,1.9-1.2,2.7c-0.4,0.9-0.9,1.6-1.6,2.2c-0.6,0.6-1.4,1.1-2.2,1.4     C1067.1,194.3,1066,194.5,1064.8,194.5L1064.8,194.5z M1061.7,192.9c0.4,0.1,0.8,0.2,1.3,0.3c0.6,0.1,1.2,0.1,1.8,0.1     c1.1,0,2-0.1,2.7-0.4c0.7-0.3,1.3-0.7,1.8-1.2c0.5-0.5,1-1.2,1.3-1.9c0.4-0.8,0.8-1.7,1.2-2.6l10.3-26.3h-3.2l-6.3,17.4h-0.9     l-6.6-17.4h-3.6l9,21.8l-1.4,3.7c-0.2,0.6-0.4,1.1-0.7,1.6c-0.2,0.5-0.6,0.9-0.9,1.3c-0.4,0.4-0.8,0.7-1.4,0.9     c-0.5,0.2-1.2,0.3-1.9,0.3c-0.7,0-1.4-0.1-2-0.3L1061.7,192.9L1061.7,192.9z"></path>
		</g>
	</g>
</g>
<g>
	<g>
		<path class="st1" d="M709.5,16.8c-5.6,0-9.9,1.2-9.9,6.4v5.1c0,5.2,4.3,6.5,9.9,6.5s9.9-1.3,9.9-6.5v-5.1    C719.4,18,715.1,16.8,709.5,16.8z"></path>
		<path class="st1" d="M713.5,44.8h-7.9c-2.6,0-4.7,2.1-4.7,4.7v67.8c0,2.6,2.1,4.7,4.7,4.7h7.9c2.6,0,4.7-2.1,4.7-4.7V49.5    C718.2,46.9,716.1,44.8,713.5,44.8L713.5,44.8z"></path>
		<path class="st1" d="M483,44c-11.5,0-19.5,5-25.5,13.1c-4-8-11.8-13.1-22.7-13.1c-11.6,0-18.2,6.3-23.1,13.1v-7.5    c0-2.6-2.1-4.7-4.7-4.7h-7.9c-2.6,0-4.7,2.1-4.7,4.7v67.8c0,2.6,2.1,4.7,4.7,4.7h7.9c2.6,0,4.7-2.1,4.7-4.7V78.6    c0-11.6,6.6-18.8,16.2-18.8s15.4,6.6,15.4,18.4v39.2c0,2.6,2.1,4.7,4.7,4.7h7.9c2.6,0,4.7-2.1,4.7-4.7V78.6    c0-12.2,6.7-18.8,16.2-18.8s15.4,6.5,15.4,18.5v39c0,2.6,2.1,4.7,4.7,4.7h7.9c2.6,0,4.7-2.1,4.7-4.7V73    C509.6,54.5,499.6,44,483,44L483,44z"></path>
		<path class="st1" d="M1215.5,16.8c-5.6,0-9.9,1.2-9.9,6.4v5.1c0,5.2,4.3,6.5,9.9,6.5s9.9-1.3,9.9-6.5v-5.1    C1225.4,18,1221.1,16.8,1215.5,16.8z"></path>
		<path class="st1" d="M1219.5,44.8h-7.9c-2.6,0-4.7,2.1-4.7,4.7v67.8c0,2.6,2.1,4.7,4.7,4.7h7.9c2.6,0,4.7-2.1,4.7-4.7V49.5    C1224.2,46.9,1222.1,44.8,1219.5,44.8L1219.5,44.8z"></path>
		<path class="st1" d="M263.3,36.9c7.5,0,14.7,2.4,20.7,6.9c0.8,0.6,1.8,0.9,2.8,0.9c1.2,0,2.4-0.5,3.2-1.3l6.1-6.1    c0.9-0.9,1.4-2.2,1.3-3.5c-0.1-1.3-0.7-2.5-1.7-3.3c-9.2-7.4-20.4-11.3-32.3-11.3c-28.6,0-51.9,23.3-51.9,51.9    s23.3,51.9,51.9,51.9c11.9,0,23.1-3.9,32.3-11.3c1-0.8,1.6-2,1.7-3.3c0.1-1.3-0.4-2.6-1.3-3.5l-6.1-6.1c-0.9-0.9-2-1.3-3.2-1.3    c-1,0-2,0.3-2.8,0.9c-6,4.5-13.1,6.9-20.6,6.9c-18.9,0-34.2-15.3-34.2-34.2S244.4,36.9,263.3,36.9L263.3,36.9z"></path>
		<path class="st1" d="M800.3,44.8h-7.9c-2.6,0-4.7,2.1-4.7,4.7v7.6c-5.6-7.9-13.5-13.1-25.8-13.1c-17.8,0-35.2,14.1-35.2,39.3v0.3    c0,25.1,17.2,39.3,35.2,39.3c12.6,0,20.5-5.8,25.8-12.8l0.1-0.2v7c0,13.1-10.1,25-24.2,25c-8.6,0-16.6-4-20.5-10.7    c-1.4-2.2-4.3-2.9-6.5-1.6l-3.3,2.2c-2.2,1.4-3,4.3-1.6,6.5c6.5,10.7,18.1,17.8,32.7,17.8c25.1,0,40.6-17.9,40.6-39.5V49.5    C805,46.9,802.9,44.8,800.3,44.8L800.3,44.8z M786.1,83.7c0,14.5-10,24.3-21.3,24.3s-20.5-9.3-20.5-24.3v-0.3    c0-14.6,9.2-24.2,20.5-24.2s21.3,9.8,21.3,24.2V83.7z"></path>
		<path class="st1" d="M1167.8,44.1c-11.8,0-18.8,6-23.7,13v-7.5c0-2.6-2.1-4.7-4.7-4.7h-7.9c-2.6,0-4.7,2.1-4.7,4.7v67.8    c0,2.6,2.1,4.7,4.7,4.7h7.9c2.6,0,4.7-2.1,4.7-5.4V75.8c0-9.2,7.4-16.7,16.7-16.7s16.7,7.4,16.7,16.7v41.5c0,2.6,2.1,4.7,4.7,4.7    h7.9c2.6,0,4.7-2.1,4.7-4.7V73.1C1194.7,55.6,1184.8,44.1,1167.8,44.1L1167.8,44.1z"></path>
		<path class="st1" d="M858.3,44.1c-11.8,0-18.8,6-23.7,13v-7.5c0-2.6-2.1-4.7-4.7-4.7H822c-2.6,0-4.7,2.1-4.7,4.7v67.8    c0,2.6,2.1,4.7,4.7,4.7h7.9c2.6,0,4.7-2.1,4.7-5.4V75.8c0-9.2,7.5-16.7,16.7-16.7s16.7,7.4,16.7,16.7v41.5c0,2.6,2.1,4.7,4.7,4.7    h7.9c2.6,0,4.7-2.1,4.7-4.7V73.1C885.2,55.6,875.3,44.1,858.3,44.1L858.3,44.1z"></path>
		<path class="st1" d="M1419.7,45c-0.2-0.1-0.4-0.2-0.5-0.2c-0.2,0-0.4-0.1-0.6-0.1c-1.6-0.4-3.3-0.5-5-0.5    c-9.1,0-16.9,5.3-20.5,12.9v-7.5c0-2.6-2.1-4.7-4.7-4.7h-7.9c-2.6,0-4.7,2.1-4.7,4.7v67.8c0,2.6,2.1,4.7,4.7,4.7h7.9    c2.6,0,4.7-2.1,4.7-4.7V88.6c0-23.2,12.1-27.3,19.1-26.8c1.4,0.1,2.6,0.3,3.6,0.4c0,0,0.4,0,0.6,0.1c0.1,0,0.2,0,0.3,0    c1.6,0,3-1.2,3.3-2.7l1.8-11.1c0-0.2,0-0.3,0-0.5C1421.7,46.7,1420.9,45.5,1419.7,45L1419.7,45z"></path>
		<path class="st1" d="M1077.7,44.1c-23.2,0-40.3,17.7-40.3,39.3v0.4c0,21.7,17.1,39.3,40.3,39.3s40.3-17.7,40.3-39.3v-0.4    C1118,61.7,1100.9,44.1,1077.7,44.1z M1100.4,83.6v0.2c0,13.2-9.2,24-22.7,24.1c-13.5-0.2-22.7-10.9-22.7-24.1v-0.5    c0-13.2,9.2-24,22.7-24.1c13.5,0.2,22.7,10.9,22.7,24.1C1100.4,83.3,1100.4,83.6,1100.4,83.6z"></path>
		<path class="st1" d="M1326.4,44.1c-23.2,0-40.3,17.7-40.3,39.3v0.4c0,21.7,17.1,39.3,40.3,39.3s40.3-17.7,40.3-39.3v-0.4    C1366.7,61.7,1349.6,44.1,1326.4,44.1z M1349,83.6v0.2c0,13.2-9.2,24-22.7,24.1c-13.5-0.2-22.7-10.9-22.7-24.1v-0.5    c0-13.2,9.2-24,22.7-24.1c13.5,0.2,22.7,10.9,22.7,24.1C1349,83.3,1349,83.6,1349,83.6z"></path>
		<path class="st1" d="M1023.7,20.3h-7.9c-1.6,0-2.9,0.8-3.8,1.9l-32.6,44.6l-32.6-44.6c-0.9-1.1-2.2-1.9-3.8-1.9H935    c-2.6,0-4.7,2.1-4.7,4.7v92.3c0,2.6,2.1,4.7,4.7,4.7h7.9c2.6,0,4.7-2.1,4.7-4.7v-64l28.8,37c0,0,0,0.1,0.1,0.1l0.2,0.3h0    c0.6,0.7,1.5,1.2,2.6,1.2s1.9-0.5,2.6-1.2h0l0.2-0.3c0,0,0-0.1,0.1-0.1l28.8-37v64c0,2.6,2.1,4.7,4.7,4.7h7.9    c2.6,0,4.7-2.1,4.7-4.7V25.1C1028.4,22.5,1026.3,20.3,1023.7,20.3L1023.7,20.3z"></path>
		<polygon class="st1" points="979.3,91.8 979.3,91.8 979.3,91.8   "></polygon>
		<path class="st1" d="M565,44.1c-12.3,0-20.2,5.1-25.8,13v-7.5c0-2.6-2.1-4.7-4.7-4.7h-7.9c-2.6,0-4.7,2.1-4.7,4.7v99.5    c0,2.6,2.1,4.8,4.7,4.8h7.9c2.6,0,4.7-2.1,4.7-4.8V110c5.3,7,13.2,13,25.8,13c17.9,0,35.2-14.2,35.2-39.3v-0.3    C600.1,58.1,582.7,44.1,565,44.1z M582.5,83.7c0,14.5-10,24.3-21.3,24.3s-20.5-9.3-20.5-24.3v-0.3c0-14.6,9.2-24.2,20.5-24.2    s21.3,9.8,21.3,24.2V83.7z"></path>
		<path class="st1" d="M382.9,109.8L382.9,109.8L382.9,109.8c-1.9,0-3.4-1.5-3.4-3.3V49.5c0-2.6-2.1-4.7-4.7-4.7h-7.9    c-2.6,0-4.7,2.1-4.7,4.7v7.5c-5.6-7.9-13.5-13-25.8-13c-17.8,0-35.1,14.1-35.1,39.3v0.3c0,25.1,17.2,39.3,35.1,39.3    c13,0,22.2-5.8,26.1-13c2,7,8.4,12.1,16,12.1l0,0h4.4c1.9,0,3.4-1.5,3.4-3.3v-5.6C386.3,111.3,384.8,109.8,382.9,109.8    L382.9,109.8z M360.6,83.7c0,14.5-10,24.3-21.3,24.3s-20.5-9.3-20.5-24.3v-0.3c0-14.6,9.2-24.2,20.5-24.2s21.3,9.8,21.3,24.2V83.7    z"></path>
		<path class="st1" d="M689.2,109.8L689.2,109.8L689.2,109.8c-1.8,0-3.3-1.5-3.3-3.3V49.5c0-2.6-2.1-4.7-4.7-4.7h-7.9    c-2.6,0-4.7,2.1-4.7,4.7v7.5c-5.6-7.9-13.5-13-25.8-13c-17.8,0-35.2,14.1-35.2,39.3v0.3c0,25.1,17.2,39.3,35.2,39.3    c13,0,22.2-5.8,26.1-13c2,7,8.4,12.1,16,12.1l0,0h4.4c1.8,0,3.3-1.5,3.3-3.3v-5.6C692.6,111.3,691.1,109.8,689.2,109.8    L689.2,109.8z M667,83.7c0,14.5-10,24.3-21.3,24.3s-20.5-9.3-20.5-24.3v-0.3c0-14.6,9.2-24.2,20.5-24.2S667,68.9,667,83.4V83.7z"></path>
		<path class="st1" d="M1277.5,44.8H1261V23.6l0,0c0-0.7-0.2-1.3-0.6-1.9c-1.1-1.5-3.2-1.9-4.7-0.8l0,0l-8.2,5.8    c-2.3,1.6-3.8,4.3-3.8,7.3v10.8h-5.6c-2.6,0-4.8,2.1-4.8,4.7v4.9c0,2.6,2.1,4.7,4.8,4.7h5.6v41.7c0,16.6,9,22.2,21.8,22.2    c6.8,0,13.7-2.6,13.7-2.6s2.4-0.7,1.8-3.4c-0.2-0.9-1.4-7.4-1.4-7.4c-0.3-1.6-0.9-2.8-3.2-2.5c-1.1,0.2-3.2,0.5-6,0.5    c-5.9,0-9.3-2.7-9.3-9.5v-39h16.5c2.6,0,4.7-2.1,4.7-4.7v-4.9C1282.2,46.9,1280.1,44.8,1277.5,44.8L1277.5,44.8z"></path>
	</g>
	<g>
		<path class="st2" d="M156.4,29.6c-1.7-2.4-5-3-7.4-1.3L18.7,119.6c1,1.4,2.5,2.3,4.4,2.3l0,0l0,0h129c2.9,0,5.3-2.4,5.3-5.3V32.6    C157.4,31.5,157.1,30.5,156.4,29.6"></path>
		<path class="st2" d="M26.1,28.3c-2.4-1.7-5.7-1.1-7.4,1.3c-0.6,0.9-1,1.9-1,3v84.1l62-50.8L26.1,28.3z"></path>
	</g>
</g>
</svg>
